<?xml version="1.0" encoding="UTF-8" standalone="no"?>
<!-- Created with Inkscape (http://www.inkscape.org/) -->

<svg
   version="1.1"
   id="svg1"
   width="1000"
   height="200"
   viewBox="0 0 1000 200"
   sodipodi:docname="full_logo.svg"
   inkscape:version="1.3.2 (091e20e, 2023-11-25)"
   xmlns:inkscape="http://www.inkscape.org/namespaces/inkscape"
   xmlns:sodipodi="http://sodipodi.sourceforge.net/DTD/sodipodi-0.dtd"
   xmlns="http://www.w3.org/2000/svg"
   xmlns:svg="http://www.w3.org/2000/svg">
  <defs
     id="defs1" />
  <sodipodi:namedview
     id="namedview1"
     pagecolor="#ffffff"
     bordercolor="#000000"
     borderopacity="0.25"
     inkscape:showpageshadow="2"
     inkscape:pageopacity="0.0"
     inkscape:pagecheckerboard="0"
     inkscape:deskcolor="#d1d1d1"
     showgrid="false"
     inkscape:zoom="0.73115695"
     inkscape:cx="530.66582"
     inkscape:cy="378.85163"
     inkscape:window-width="1744"
     inkscape:window-height="1067"
     inkscape:window-x="51"
     inkscape:window-y="25"
     inkscape:window-maximized="1"
     inkscape:current-layer="g2" />
  <g
     inkscape:groupmode="layer"
     inkscape:label="Image"
     id="g1">
    <g
       id="g2"
       transform="matrix(0.76811073,0,0,0.76811073,29.377873,2.0658818)">
      <path
         style="fill:#e77500;fill-opacity:1"
         d="m 37.818652,249.17949 c -3.00389,-1.08015 -5.61067,-1.96392 -5.79284,-1.96392 -1.50309,0 -10.98967,-10.49365 -13.09055,-14.4802 -2.32261,-4.40731 -2.64539,-6.17894 -2.64539,-14.5198 0,-8.38853 0.31593,-10.09998 2.70033,-14.6282 4.752,-9.02458 11.32249,-14.13241 24.17695,-18.79491 11.51496,-4.17665 16.26221,-8.92689 21.56327,-21.57689 7.34486,-17.52715 14.4666,-23.48402 28.049844,-23.46185 6.156403,0.0101 8.395744,0.48438 12.500004,2.64775 7.78265,4.10226 11.11682,8.32992 16.10231,20.4174 2.47189,5.99319 5.65641,12.58075 7.0767,14.63902 3.41223,4.94498 10.0696,9.23931 18.56533,11.97554 8.9134,2.87075 13.80525,7.10616 17.96366,15.55309 2.89539,5.88137 3.29144,7.65334 3.28738,14.70802 -0.006,10.09196 -3.17086,17.24575 -10.57551,23.90316 -6.38833,5.74367 -12.88453,7.96492 -21.75344,7.4382 -5.90374,-0.35062 -7.6788,-0.99683 -15.51522,-5.64835 -19.11024,-11.3434 -33.026128,-13.01517 -48.231378,-5.79422 -4.16813,1.97943 -8.79831,4.46761 -10.2893,5.52929 -3.00266,2.13808 -14.06099,6.11333 -16.84899,6.05687 -0.97985,-0.0198 -4.23927,-0.91984 -7.24316,-2 z M 26.849322,164.64862 C 17.963812,160.79325 8.1406817,148.72475 3.1964711,135.58919 1.7787714,131.8227 -0.00665855,124.2353 -0.77115855,118.7283 -1.5356486,113.2213 -2.6135985,106.91557 -3.1665885,104.71557 c -1.3364901,-5.317067 -1.3235401,-22.140755 0.0219,-28.414223 1.05299,-4.909957 4.4420599,-11.111634 6.4249696,-11.757108 0.61405,-0.199885 1.0329901,3.243917 1.0854801,8.922907 0.0524,5.666512 0.7811902,11.66905 1.8817802,15.498426 1.7962903,6.25 1.7962903,6.25 5.8487906,6.25 9.22608,0 20.52827,9.353108 27.48264,22.743218 5.00871,9.64389 7.33116,18.42444 7.36815,27.85695 0.0361,9.21582 -1.39048,13.51099 -5.76269,17.34985 -3.96074,3.47758 -8.62591,3.96021 -14.33509,1.48303 z m 119.526798,-1.48303 c -4.35113,-3.82035 -5.82058,-8.19708 -5.8089,-17.3017 0.0306,-23.89985 18.46051,-50.648318 34.897,-50.648318 4.0525,0 4.0525,0 5.84879,-6.25 1.10059,-3.829376 1.8294,-9.831914 1.88178,-15.498426 0.0525,-5.67899 0.47143,-9.122792 1.08548,-8.922907 1.98291,0.645474 5.37198,6.847151 6.42498,11.757108 1.37841,6.427313 1.39081,24.381813 0.02,28.920823 -0.58028,1.92137 -1.676,8.05279 -2.43494,13.62538 -1.68521,12.37388 -5.67538,23.04303 -11.85842,31.70779 -10.218,14.31924 -22.32426,19.39857 -30.05574,12.61025 z m -29.09585,-40.11211 c -7.35073,-4.04757 -13.24881,-13.82726 -16.11862,-26.726497 -2.148581,-9.657425 -1.362511,-23.987247 2.05482,-37.458734 2.74228,-10.810408 4.90765,-14.99137 10.14642,-19.591072 3.37359,-2.962058 3.62931,-3.691313 6.77461,-19.319928 3.63341,-18.0539342 3.54518,-18.0788632 6.22336,1.758323 1.75005,12.962581 1.76744,13.013839 6.04197,17.807788 15.64781,17.549239 17.52069,54.543012 3.81826,75.41936 -5.06543,7.71743 -13.27261,11.23188 -18.94082,8.11076 z m -56.079728,-3.7234 c -10.71218,-6.53228 -17.20021,-25.44349 -16.01994,-46.694723 0.53025,-9.547265 3.06554,-20.510797 6.10952,-26.419785 0.70833,-1.375 3.50726,-5.274632 6.21985,-8.665848 4.93198,-6.165848 4.93198,-6.165848 6.81549,-20.786696 1.03593,-8.0414675 2.17213,-13.8168352 2.52489,-12.8341522 0.35276,0.9826825 1.19996,6.2866952 1.88267,11.7866962 1.89942,15.301994 2.39841,16.65766 7.43904,20.210624 7.76155,5.470845 13.04003,19.659221 14.26114,38.333451 1.962904,30.018123 -13.87444,54.435863 -29.23266,45.070433 z"
         id="path1" />
      <path
         d="m 271.05685,139.12686 v 27.66171 q 0,8.09252 0.95639,10.226 1.02996,2.05991 3.53128,3.31057 2.5749,1.25067 9.34318,1.25067 v 2.72203 h -50.68859 v -2.72203 q 6.91542,0 9.34318,-1.25067 2.50132,-1.32423 3.45771,-3.38414 1.02996,-2.05991 1.02996,-10.15243 v -64.74016 q 0,-8.092519 -1.02996,-10.152433 -0.95639,-2.133482 -3.45771,-3.384144 -2.50133,-1.250662 -9.34318,-1.250662 v -2.72203 h 43.4789 q 21.48196,0 30.82514,7.65111 9.34318,7.651109 9.34318,19.127769 0,9.71103 -6.03261,16.62645 -6.0326,6.91543 -16.62645,9.41675 -7.13613,1.76564 -24.13042,1.76564 z m 0,-48.849387 v 43.111057 q 2.42776,0.14714 3.67842,0.14714 8.97534,0 13.83085,-5.29692 4.85551,-5.37049 4.85551,-16.55288 0,-11.10883 -4.85551,-16.258611 -4.85551,-5.149786 -14.49296,-5.149786 z m 114.69308,57.162617 h -37.74057 q 0.66211,13.68371 7.28327,21.6291 5.07621,6.10617 12.21234,6.10617 4.41411,0 8.01896,-2.42776 3.60484,-2.50132 7.72467,-8.90177 l 2.50133,1.61851 q -5.5912,11.40309 -12.35949,16.18504 -6.76829,4.70837 -15.67006,4.70837 -15.30222,0 -23.17403,-11.77094 -6.32688,-9.49032 -6.32688,-23.54187 0,-17.215 9.26961,-27.36743 9.34319,-10.226 21.84981,-10.226 10.4467,0 18.09781,8.60749 7.72468,8.53393 8.31323,25.38109 z m -18.09782,-4.92908 q 0,-11.84451 -1.32423,-16.25861 -1.25066,-4.4141 -3.97269,-6.69472 -1.54494,-1.32423 -4.11983,-1.32423 -3.82555,0 -6.25331,3.75199 -4.34053,6.54758 -4.34053,17.95068 v 2.57489 z m 58.26614,44.58242 -22.21765,-50.98287 q -5.00265,-11.55023 -7.4304,-14.19869 -2.35419,-2.64846 -5.73833,-3.67842 v -2.72203 h 36.56347 v 2.72203 q -3.60485,0.14714 -5.07622,1.3978 -1.47136,1.25066 -1.47136,3.0163 0,2.7956 3.67841,11.03526 l 11.77094,26.92601 8.01895,-20.81984 q 4.34054,-11.10882 4.34054,-15.44936 0,-2.72203 -1.83921,-4.34053 -1.76564,-1.6185 -6.32688,-1.76564 v -2.72203 h 23.0269 v 2.72203 q -3.38415,0.36784 -5.51763,2.64846 -2.13348,2.20705 -7.13613,15.22865 l -19.64275,50.98287 q -7.43041,19.12778 -11.03526,23.54188 -5.07622,6.17974 -12.72732,6.17974 -6.10618,0 -9.93173,-3.53128 -3.75199,-3.45771 -3.75199,-8.38679 0,-4.26697 2.57489,-7.06257 2.64846,-2.79559 6.47402,-2.79559 3.67842,0 5.88547,2.35418 2.28062,2.35419 2.35419,7.28327 0.0736,2.7956 0.66211,3.60485 0.58855,0.80925 1.69207,0.80925 1.76564,0 3.75199,-2.13348 2.94273,-3.08987 6.91542,-14.12512 z M 496.9853,90.351042 v 25.160378 h 16.33217 v 7.28327 H 496.9853 v 42.44894 q 0,5.95904 0.51498,7.72468 0.58854,1.69207 1.98634,2.7956 1.3978,1.02995 2.57489,1.02995 4.78195,0 9.04891,-7.28326 l 2.20705,1.6185 q -5.95903,14.12512 -19.34848,14.12512 -6.54758,0 -11.10882,-3.60484 -4.48767,-3.67842 -5.73833,-8.16609 -0.73568,-2.50133 -0.73568,-13.53658 v -37.15202 h -8.97534 v -2.57489 q 9.26961,-6.54759 15.74363,-13.75729 6.54758,-7.209697 11.40309,-16.111468 z m 55.3234,23.100468 q 8.97534,0 16.70001,4.6348 7.72468,4.63481 11.69737,13.16874 4.04626,8.53393 4.04626,18.68636 0,14.64011 -7.4304,24.49827 -8.97534,11.91807 -24.79254,11.91807 -15.52292,0 -23.90971,-10.88812 -8.3868,-10.88811 -8.3868,-25.23394 0,-14.78724 8.53393,-25.74893 8.6075,-11.03525 23.54188,-11.03525 z m 0.29427,5.22335 q -3.75199,0 -6.47402,2.86917 -2.64846,2.79559 -3.53128,11.18239 -0.80925,8.31322 -0.80925,23.17403 0,7.87181 1.02996,14.71367 0.80925,5.22336 3.45771,7.94538 2.64846,2.72203 6.03261,2.72203 3.31057,0 5.51762,-1.83921 2.86917,-2.50132 3.82556,-6.98899 1.47137,-6.98899 1.47137,-28.25025 0,-12.50662 -1.3978,-17.14143 -1.3978,-4.70837 -4.11983,-6.84185 -1.91278,-1.54494 -5.00265,-1.54494 z m 70.69918,-3.16344 v 8.90177 q 5.29692,-5.73833 10.15243,-8.31322 4.85551,-2.64846 10.44671,-2.64846 6.69472,0 11.10882,3.75198 4.4141,3.67842 5.88547,9.19605 1.17709,4.19339 1.17709,16.11147 v 26.77888 q 0,7.94538 1.3978,9.93173 1.47137,1.91278 6.03261,2.42776 v 2.64846 h -34.79784 v -2.64846 q 3.89913,-0.51498 5.5912,-3.23701 1.17709,-1.83921 1.17709,-9.12248 v -30.60444 q 0,-8.46036 -0.66211,-10.66741 -0.66212,-2.20705 -2.28062,-3.38414 -1.54494,-1.25066 -3.45771,-1.25066 -6.32688,0 -11.77094,9.0489 v 36.85775 q 0,7.72468 1.3978,9.78459 1.47136,2.05992 5.37049,2.5749 v 2.64846 H 595.2726 v -2.64846 q 4.34054,-0.44141 6.17975,-2.7956 1.25066,-1.61851 1.25066,-9.56389 V 130.4458 q 0,-7.79825 -1.47137,-9.71103 -1.3978,-1.91277 -5.95904,-2.50132 v -2.72203 z m 72.24414,-33.326466 q 4.78194,0 8.09252,3.384145 3.31057,3.310576 3.31057,8.018951 0,4.708375 -3.38414,8.01895 -3.31058,3.31058 -8.01895,3.31058 -4.70838,0 -8.01895,-3.31058 -3.31058,-3.310575 -3.31058,-8.01895 0,-4.708375 3.31058,-8.018951 3.31057,-3.384145 8.01895,-3.384145 z m 10.29957,33.326466 v 54.51415 q 0,7.28327 1.69207,9.34319 1.69207,1.98634 6.62115,2.28062 v 2.64846 h -37.15202 v -2.64846 q 4.56124,-0.14714 6.76829,-2.64847 1.47137,-1.69207 1.47137,-8.97534 v -40.16832 q 0,-7.28327 -1.69207,-9.26961 -1.69208,-2.05992 -6.54759,-2.35419 v -2.72203 z m 42.30182,-25.160378 v 25.160378 h 16.33218 v 7.28327 h -16.33218 v 42.44894 q 0,5.95904 0.51498,7.72468 0.58855,1.69207 1.98635,2.7956 1.39779,1.02995 2.57489,1.02995 4.78194,0 9.04891,-7.28326 l 2.20705,1.6185 q -5.95904,14.12512 -19.34848,14.12512 -6.54759,0 -11.10882,-3.60484 -4.48767,-3.67842 -5.73834,-8.16609 -0.73568,-2.50133 -0.73568,-13.53658 v -37.15202 h -8.97534 v -2.57489 q 9.26961,-6.54759 15.74363,-13.75729 6.54758,-7.209697 11.4031,-16.111468 z m 81.14586,57.089048 h -37.74056 q 0.66211,13.68371 7.28326,21.6291 5.07622,6.10617 12.21235,6.10617 4.4141,0 8.01895,-2.42776 3.60485,-2.50132 7.72468,-8.90177 l 2.50132,1.61851 q -5.59119,11.40309 -12.35948,16.18504 -6.76829,4.70837 -15.67006,4.70837 -15.30222,0 -23.17403,-11.77094 -6.32688,-9.49032 -6.32688,-23.54187 0,-17.215 9.26961,-27.36743 9.34318,-10.226 21.8498,-10.226 10.44671,0 18.09782,8.60749 7.72468,8.53393 8.31322,25.38109 z m -18.09781,-4.92908 q 0,-11.84451 -1.32423,-16.25861 -1.25066,-4.4141 -3.97269,-6.69472 -1.54494,-1.32423 -4.11983,-1.32423 -3.82556,0 -6.25331,3.75199 -4.34054,6.54758 -4.34054,17.95068 v 2.57489 z m 70.18423,-28.91237 1.10353,23.46831 h -2.50133 q -4.48767,-10.44671 -9.34318,-14.27226 -4.78194,-3.82556 -9.56389,-3.82556 -3.0163,0 -5.14978,2.05992 -2.13348,1.98634 -2.13348,4.6348 0,1.98635 1.47136,3.82556 2.35419,3.0163 13.16874,10.37314 10.81455,7.28326 14.19869,12.43305 3.45772,5.07622 3.45772,11.4031 0,5.73833 -2.86917,11.25595 -2.86917,5.51763 -8.09252,8.46037 -5.22335,2.94273 -11.55023,2.94273 -4.92908,0 -13.16874,-3.08987 -2.20705,-0.80925 -3.0163,-0.80925 -2.42776,0 -4.04626,3.67842 h -2.42776 l -1.17709,-24.71897 h 2.50132 q 3.31058,9.71102 9.04891,14.56653 5.8119,4.85551 10.96169,4.85551 3.53128,0 5.73833,-2.13348 2.28062,-2.20705 2.28062,-5.29692 0,-3.53128 -2.20705,-6.10617 -2.20705,-2.5749 -9.85816,-7.79825 -11.25596,-7.79825 -14.56654,-11.91807 -4.85551,-6.03261 -4.85551,-13.31588 0,-7.94538 5.44406,-14.34583 5.51763,-6.47401 15.89077,-6.47401 5.59119,0 10.81454,2.72203 1.98635,1.10352 3.23701,1.10352 1.32423,0 2.13348,-0.51498 0.80926,-0.58854 2.5749,-3.16344 z m 110.13182,70.6992 h -58.70755 v -1.61851 q 26.99958,-32.14937 32.73792,-43.25819 5.8119,-11.10882 5.8119,-21.70267 0,-7.72468 -4.78195,-12.80089 -4.78194,-5.149788 -11.69737,-5.149788 -11.32952,0 -17.58283,11.329528 l -2.72203,-0.95639 q 3.97269,-14.125125 12.06521,-20.893414 8.09252,-6.768289 18.68636,-6.768289 7.57754,0 13.83085,3.531282 6.25331,3.531281 9.78459,9.711023 3.53129,6.106178 3.53129,11.476668 0,9.78459 -5.44406,19.86345 -7.43041,13.61015 -32.44365,37.96128 h 21.55553 q 7.94538,0 10.29957,-0.66212 2.42776,-0.66211 3.97269,-2.20705 1.54494,-1.6185 4.04626,-6.69472 h 2.64846 z m 82.76442,-49.87935 q 0,14.93438 -4.1934,27.88241 -2.5013,7.94538 -6.7683,13.0216 -4.1934,5.07621 -9.5638,8.09252 -5.3705,2.94273 -11.6974,2.94273 -7.2097,0 -13.0216,-3.67842 -5.8119,-3.67842 -10.2996,-10.52027 -3.237,-5.00265 -5.6647,-13.31588 -3.1635,-11.25595 -3.1635,-23.2476 0,-16.2586 4.5613,-29.86875 3.7519,-11.25596 11.403,-17.214997 7.6512,-6.032606 16.1851,-6.032606 8.6811,0 16.185,5.959038 7.5776,5.885468 11.1088,15.890765 4.9291,13.75728 4.9291,30.08946 z m -22.659,-0.14714 q 0,-26.19033 -0.2943,-30.53087 -0.7357,-10.225999 -3.5313,-13.830848 -1.8392,-2.354188 -5.959,-2.354188 -3.1635,0 -5.0027,1.765641 -2.722,2.574892 -3.6784,9.122476 -0.9564,6.474019 -0.9564,45.391679 0,21.18769 1.4714,28.39739 1.1035,5.22335 3.1634,6.98899 2.0599,1.76564 5.4441,1.76564 3.6784,0 5.5176,-2.35419 3.0899,-4.11983 3.5313,-12.72732 z m 90.5626,50.02649 h -58.7075 v -1.61851 q 26.9995,-32.14937 32.7379,-43.25819 5.8119,-11.10882 5.8119,-21.70267 0,-7.72468 -4.782,-12.80089 -4.7819,-5.149788 -11.6973,-5.149788 -11.3296,0 -17.5829,11.329528 l -2.722,-0.95639 q 3.9727,-14.125125 12.0652,-20.893414 8.0925,-6.768289 18.6864,-6.768289 7.5775,0 13.8308,3.531282 6.2533,3.531281 9.7846,9.711023 3.5313,6.106178 3.5313,11.476668 0,9.78459 -5.4441,19.86345 -7.4304,13.61015 -32.4436,37.96128 h 21.5555 q 7.9454,0 10.2996,-0.66212 2.4277,-0.66211 3.9727,-2.20705 1.5449,-1.6185 4.0462,-6.69472 h 2.6485 z m 16.7,-37.59344 47.378,-64.225173 h 8.9754 V 146.7044 h 9.1224 v 15.22866 h -9.1224 v 22.36478 h -20.2313 v -22.36478 h -36.1221 z m 7.1361,0 h 28.986 v -39.35907 z"
         id="text1"
         style="font-weight:bold;font-size:150.668px;font-family:Serif;-inkscape-font-specification:'Serif Bold';fill:#e77500;stroke-width:6.61226;stroke-linejoin:bevel;paint-order:fill markers stroke"
         aria-label="Peytonites 2024" />
    </g>
  </g>
</svg>
