<?xml version="1.0" encoding="UTF-8" standalone="no"?>
<!-- Created with Inkscape (http://www.inkscape.org/) -->

<svg
   version="1.1"
   id="svg1"
   width="198"
   height="255"
   viewBox="0 0 198 255"
   sodipodi:docname="logo.svg"
   inkscape:version="1.3.2 (091e20e, 2023-11-25)"
   xmlns:inkscape="http://www.inkscape.org/namespaces/inkscape"
   xmlns:sodipodi="http://sodipodi.sourceforge.net/DTD/sodipodi-0.dtd"
   xmlns="http://www.w3.org/2000/svg"
   xmlns:svg="http://www.w3.org/2000/svg">
  <defs
     id="defs1" />
  <sodipodi:namedview
     id="namedview1"
     pagecolor="#ffffff"
     bordercolor="#000000"
     borderopacity="0.25"
     inkscape:showpageshadow="2"
     inkscape:pageopacity="0.0"
     inkscape:pagecheckerboard="0"
     inkscape:deskcolor="#d1d1d1"
     showgrid="false"
     inkscape:zoom="3.3490196"
     inkscape:cx="108.38993"
     inkscape:cy="136.45785"
     inkscape:window-width="1744"
     inkscape:window-height="1067"
     inkscape:window-x="51"
     inkscape:window-y="25"
     inkscape:window-maximized="1"
     inkscape:current-layer="g1" />
  <g
     inkscape:groupmode="layer"
     inkscape:label="Image"
     id="g1">
    <path
       style="fill:#e77500;fill-opacity:1"
       d="m 43.026234,249.17949 c -3.00389,-1.08015 -5.61067,-1.96392 -5.79284,-1.96392 -1.50309,0 -10.98967,-10.49365 -13.09055,-14.4802 -2.32261,-4.40731 -2.64539,-6.17894 -2.64539,-14.5198 0,-8.38853 0.31593,-10.09998 2.70033,-14.6282 4.752,-9.02458 11.32249,-14.13241 24.17695,-18.79491 11.51496,-4.17665 16.26221,-8.92689 21.56327,-21.57689 7.34486,-17.52715 14.4666,-23.48402 28.049844,-23.46185 6.156402,0.0101 8.395742,0.48438 12.500002,2.64775 7.78265,4.10226 11.11682,8.32992 16.10231,20.4174 2.47189,5.99319 5.65641,12.58075 7.0767,14.63902 3.41223,4.94498 10.0696,9.23931 18.56533,11.97554 8.9134,2.87075 13.80525,7.10616 17.96366,15.55309 2.89539,5.88137 3.29144,7.65334 3.28738,14.70802 -0.006,10.09196 -3.17086,17.24575 -10.57551,23.90316 -6.38833,5.74367 -12.88453,7.96492 -21.75344,7.4382 -5.90374,-0.35062 -7.6788,-0.99683 -15.51522,-5.64835 -19.11024,-11.3434 -33.026126,-13.01517 -48.231376,-5.79422 -4.16813,1.97943 -8.79831,4.46761 -10.2893,5.52929 -3.00266,2.13808 -14.06099,6.11333 -16.84899,6.05687 -0.97985,-0.0198 -4.23927,-0.91984 -7.24316,-2 z M 32.056904,164.64862 C 23.171394,160.79325 13.348264,148.72475 8.4040537,135.58919 6.986354,131.8227 5.200924,124.2353 4.436424,118.7283 3.671934,113.2213 2.593984,106.91557 2.040994,104.71557 0.70450397,99.398503 0.71745397,82.574815 2.062894,76.301347 3.115884,71.39139 6.504954,65.189713 8.4878637,64.544239 c 0.61405,-0.199885 1.0329901,3.243917 1.0854801,8.922907 0.0524,5.666512 0.7811902,11.66905 1.8817802,15.498426 1.79629,6.25 1.79629,6.25 5.84879,6.25 9.22608,0 20.52827,9.353108 27.48264,22.743218 5.00871,9.64389 7.33116,18.42444 7.36815,27.85695 0.0361,9.21582 -1.39048,13.51099 -5.76269,17.34985 -3.96074,3.47758 -8.62591,3.96021 -14.33509,1.48303 z M 151.5837,163.16559 c -4.35113,-3.82035 -5.82058,-8.19708 -5.8089,-17.3017 0.0306,-23.89985 18.46051,-50.648318 34.897,-50.648318 4.0525,0 4.0525,0 5.84879,-6.25 1.10059,-3.829376 1.8294,-9.831914 1.88178,-15.498426 0.0525,-5.67899 0.47143,-9.122792 1.08548,-8.922907 1.98291,0.645474 5.37198,6.847151 6.42498,11.757108 1.37841,6.427313 1.39081,24.381813 0.02,28.920823 -0.58028,1.92137 -1.676,8.05279 -2.43494,13.62538 -1.68521,12.37388 -5.67538,23.04303 -11.85842,31.70779 -10.218,14.31924 -22.32426,19.39857 -30.05574,12.61025 z m -29.09585,-40.11211 c -7.35073,-4.04757 -13.24881,-13.82726 -16.11862,-26.726497 -2.14858,-9.657425 -1.36251,-23.987247 2.05482,-37.458734 2.74228,-10.810408 4.90765,-14.99137 10.14642,-19.591072 3.37359,-2.962058 3.62931,-3.691313 6.77461,-19.319928 3.63341,-18.0539339 3.54518,-18.0788629 6.22336,1.758323 1.75005,12.962581 1.76744,13.013839 6.04197,17.807788 15.64781,17.549239 17.52069,54.543012 3.81826,75.41936 -5.06543,7.71743 -13.27261,11.23188 -18.94082,8.11076 z m -56.079726,-3.7234 c -10.71218,-6.53228 -17.20021,-25.44349 -16.01994,-46.694723 0.53025,-9.547265 3.06554,-20.510797 6.10952,-26.419785 0.70833,-1.375 3.50726,-5.274632 6.21985,-8.665848 4.93198,-6.165848 4.93198,-6.165848 6.81549,-20.786696 1.03593,-8.0414672 2.17213,-13.8168349 2.52489,-12.8341519 0.35276,0.9826825 1.19996,6.2866949 1.88267,11.7866959 1.89942,15.301994 2.39841,16.65766 7.43904,20.210624 7.76155,5.470845 13.04003,19.659221 14.26114,38.333451 1.962904,30.018123 -13.87444,54.435863 -29.23266,45.070433 z"
       id="path1" />
  </g>
</svg>
